<?xml version="1.0" encoding="UTF-8"?>
<svg width="16px" height="31px" viewBox="0 0 16 31" version="1.1" xmlns="http://www.w3.org/2000/svg" xmlns:xlink="http://www.w3.org/1999/xlink">
    <title>TabBar_Mercusuar@2x</title>
    <g id="Page-1" stroke="none" stroke-width="1" fill="none" fill-rule="evenodd">
        <g id="iPhone-11-Pro" transform="translate(-61.000000, -816.000000)" fill="#999999" stroke="#999999">
            <g id="Group-2" transform="translate(0.000000, 814.000000)">
                <path d="M69.4450883,2.5 L69.4459246,4.52509998 C70.3395566,4.63245099 71.1321,5.05393293 71.6982113,5.67213498 C72.2193548,6.24123145 72.5483641,6.97749528 72.5836495,7.78723851 L72.585914,8.00982898 L74.2322835,8.00978038 L74.2322835,8.88647077 L72.7827244,8.88575202 L72.7827244,11.7627683 L74.2322835,11.7634402 L74.2322835,12.640377 L72.972,12.639752 L72.972,31.6229934 L76.5,31.6230402 L76.5,32.5 L61.5,32.5 L61.5,31.62304 L64.901,31.6229931 L64.901,12.6397387 L63.7047244,12.6403637 L63.7047244,11.7634178 L65.0267244,11.762746 L65.0267244,8.88572808 L63.7047244,8.88644683 L63.7047244,8.00954259 L65.3950382,8.00878843 C65.3821489,7.10486143 65.7252913,6.28396884 66.2953395,5.66424894 C66.8170631,5.0970644 67.5285034,4.69805416 68.3332104,4.55561518 L68.5549158,4.52319587 L68.555078,2.5 L69.4450883,2.5 Z M70.5,26.5 L67.5,26.5 L67.5,31.5 L70.5,31.5 L70.5,26.5 Z M72.2077244,8.886 L65.6017244,8.886 L65.6017244,11.763 L72.2077244,11.763 L72.2077244,8.886 Z" id="TabBar_Mercusuar"></path>
            </g>
        </g>
    </g>
</svg>